<mxfile host="65bd71144e">
    <diagram id="91P5XR5u40-4MeILk5UR" name="Page-1">
        <mxGraphModel dx="1352" dy="772" grid="1" gridSize="10" guides="1" tooltips="1" connect="1" arrows="1" fold="1" page="1" pageScale="1" pageWidth="850" pageHeight="1100" math="0" shadow="0">
            <root>
                <mxCell id="0"/>
                <mxCell id="1" parent="0"/>
                <mxCell id="69" value="Generate OSCAL Assessment Result&lt;br&gt;(C2P Upward part)" style="text;html=1;strokeColor=none;fillColor=none;align=center;verticalAlign=middle;whiteSpace=wrap;rounded=0;fontSize=18;" vertex="1" parent="1">
                    <mxGeometry x="600" y="50" width="190" height="30" as="geometry"/>
                </mxCell>
                <mxCell id="70" value="Enable/Update Auditree&amp;nbsp;&lt;br&gt;(C2P Downward part)" style="text;html=1;strokeColor=none;fillColor=none;align=center;verticalAlign=middle;whiteSpace=wrap;rounded=0;fontSize=18;" vertex="1" parent="1">
                    <mxGeometry x="91.62" y="50" width="210" height="30" as="geometry"/>
                </mxCell>
                <mxCell id="71" style="edgeStyle=none;html=1;entryX=0.816;entryY=-0.039;entryDx=0;entryDy=0;exitX=0.5;exitY=1;exitDx=0;exitDy=0;entryPerimeter=0;exitPerimeter=0;" edge="1" parent="1" source="85" target="78">
                    <mxGeometry relative="1" as="geometry">
                        <mxPoint x="336.12" y="200" as="sourcePoint"/>
                        <mxPoint x="346.12" y="180" as="targetPoint"/>
                    </mxGeometry>
                </mxCell>
                <mxCell id="72" style="edgeStyle=none;html=1;entryX=0;entryY=0.75;entryDx=0;entryDy=0;exitX=1.001;exitY=0.634;exitDx=0;exitDy=0;exitPerimeter=0;" edge="1" parent="1" target="78">
                    <mxGeometry relative="1" as="geometry">
                        <mxPoint x="136.62" y="263" as="targetPoint"/>
                        <mxPoint x="76.68000000000006" y="195.36" as="sourcePoint"/>
                    </mxGeometry>
                </mxCell>
                <mxCell id="76" style="edgeStyle=none;html=1;exitX=-0.004;exitY=0.338;exitDx=0;exitDy=0;exitPerimeter=0;entryX=1.008;entryY=0.298;entryDx=0;entryDy=0;entryPerimeter=0;" edge="1" parent="1" source="78">
                    <mxGeometry relative="1" as="geometry">
                        <mxPoint x="77.10000000000014" y="181.91999999999996" as="targetPoint"/>
                    </mxGeometry>
                </mxCell>
                <mxCell id="77" style="edgeStyle=none;html=1;exitX=0.5;exitY=1;exitDx=0;exitDy=0;" edge="1" parent="1" source="78">
                    <mxGeometry relative="1" as="geometry">
                        <mxPoint x="278.7648148148148" y="268" as="targetPoint"/>
                    </mxGeometry>
                </mxCell>
                <mxCell id="78" value="oscal2policy" style="rounded=0;whiteSpace=wrap;html=1;fillColor=#ffe6cc;strokeColor=#d79b00;" vertex="1" parent="1">
                    <mxGeometry x="188.62" y="170" width="181.38" height="34" as="geometry"/>
                </mxCell>
                <mxCell id="79" value="Policies" style="shape=note;whiteSpace=wrap;html=1;backgroundOutline=1;darkOpacity=0.05;size=12;" vertex="1" parent="1">
                    <mxGeometry x="237.12" y="217" width="80" height="30" as="geometry"/>
                </mxCell>
                <mxCell id="80" value="sync (GitOps engine)" style="rounded=0;whiteSpace=wrap;html=1;fillColor=#ffe6cc;strokeColor=#d79b00;" vertex="1" parent="1">
                    <mxGeometry x="190.31" y="364" width="178" height="34" as="geometry"/>
                </mxCell>
                <mxCell id="82" value="Raw Policies" style="shape=note;whiteSpace=wrap;html=1;backgroundOutline=1;darkOpacity=0.05;size=12;" vertex="1" parent="1">
                    <mxGeometry x="91.62" y="187" width="80" height="30" as="geometry"/>
                </mxCell>
                <mxCell id="85" value="OSCAL CDef" style="shape=note;whiteSpace=wrap;html=1;backgroundOutline=1;darkOpacity=0.05;size=12;" vertex="1" parent="1">
                    <mxGeometry x="296.62" y="120" width="80" height="30" as="geometry"/>
                </mxCell>
                <mxCell id="123" style="edgeStyle=none;html=1;entryX=0.002;entryY=0.626;entryDx=0;entryDy=0;exitX=1;exitY=0.5;exitDx=0;exitDy=0;exitPerimeter=0;entryPerimeter=0;" edge="1" parent="1" source="87" target="157">
                    <mxGeometry relative="1" as="geometry">
                        <mxPoint x="520" y="184" as="targetPoint"/>
                        <Array as="points">
                            <mxPoint x="390" y="568"/>
                            <mxPoint x="540" y="221"/>
                        </Array>
                    </mxGeometry>
                </mxCell>
                <mxCell id="87" value="Evidence Locker" style="shape=cylinder3;whiteSpace=wrap;html=1;boundedLbl=1;backgroundOutline=1;size=8.846153846153868;fillColor=#0050ef;fontColor=#ffffff;strokeColor=#001DBC;" vertex="1" parent="1">
                    <mxGeometry x="236.93" y="543" width="84.76" height="50" as="geometry"/>
                </mxCell>
                <mxCell id="90" value="c2p-config.yaml" style="shape=note;whiteSpace=wrap;html=1;backgroundOutline=1;darkOpacity=0.05;size=8;" vertex="1" parent="1">
                    <mxGeometry x="195.62" y="120" width="80" height="30" as="geometry"/>
                </mxCell>
                <mxCell id="91" style="edgeStyle=none;html=1;exitX=0.5;exitY=1;exitDx=0;exitDy=0;exitPerimeter=0;" edge="1" parent="1" source="90">
                    <mxGeometry relative="1" as="geometry">
                        <mxPoint x="243.62" y="214" as="sourcePoint"/>
                        <mxPoint x="235.6199999999999" y="170" as="targetPoint"/>
                    </mxGeometry>
                </mxCell>
                <mxCell id="111" value="Policy Collection" style="shape=cylinder3;whiteSpace=wrap;html=1;boundedLbl=1;backgroundOutline=1;size=8.846153846153868;fillColor=#0050ef;fontColor=#ffffff;strokeColor=#001DBC;" vertex="1" parent="1">
                    <mxGeometry x="2" y="162" width="71.88" height="60" as="geometry"/>
                </mxCell>
                <mxCell id="114" style="edgeStyle=none;html=1;entryX=0.5;entryY=0;entryDx=0;entryDy=0;exitX=0.5;exitY=1;exitDx=0;exitDy=0;exitPerimeter=0;" edge="1" parent="1" source="112" target="80">
                    <mxGeometry relative="1" as="geometry">
                        <mxPoint x="278.94050847457606" y="318" as="sourcePoint"/>
                        <mxPoint x="279.0499999999997" y="352" as="targetPoint"/>
                    </mxGeometry>
                </mxCell>
                <mxCell id="156" style="edgeStyle=none;html=1;exitX=1;exitY=0.5;exitDx=0;exitDy=0;exitPerimeter=0;" edge="1" parent="1" source="112">
                    <mxGeometry relative="1" as="geometry">
                        <mxPoint x="560" y="180" as="targetPoint"/>
                        <Array as="points">
                            <mxPoint x="440" y="289"/>
                            <mxPoint x="490" y="180"/>
                        </Array>
                    </mxGeometry>
                </mxCell>
                <mxCell id="112" value="GitRepo" style="shape=cylinder3;whiteSpace=wrap;html=1;boundedLbl=1;backgroundOutline=1;size=8.846153846153868;fillColor=#0050ef;fontColor=#ffffff;strokeColor=#001DBC;" vertex="1" parent="1">
                    <mxGeometry x="243.18" y="268" width="71.88" height="42" as="geometry"/>
                </mxCell>
                <mxCell id="116" value="upload results &lt;br&gt;(cronjob or controller)" style="rounded=0;whiteSpace=wrap;html=1;fillColor=#ffe6cc;strokeColor=#d79b00;" vertex="1" parent="1">
                    <mxGeometry x="190.12" y="433" width="178" height="34" as="geometry"/>
                </mxCell>
                <mxCell id="118" value="K8S" style="rounded=0;whiteSpace=wrap;html=1;fillColor=#0050ef;strokeColor=#001DBC;fontColor=#ffffff;" vertex="1" parent="1">
                    <mxGeometry x="190.31" y="398" width="178" height="34" as="geometry"/>
                </mxCell>
                <mxCell id="119" value="Policies" style="shape=note;whiteSpace=wrap;html=1;backgroundOutline=1;darkOpacity=0.05;size=12;" vertex="1" parent="1">
                    <mxGeometry x="239.12" y="317" width="80" height="30" as="geometry"/>
                </mxCell>
                <mxCell id="120" style="edgeStyle=none;html=1;entryX=0.5;entryY=0;entryDx=0;entryDy=0;exitX=0.5;exitY=1;exitDx=0;exitDy=0;exitPerimeter=0;entryPerimeter=0;" edge="1" parent="1" target="87">
                    <mxGeometry relative="1" as="geometry">
                        <mxPoint x="279.3100000000001" y="467" as="sourcePoint"/>
                        <mxPoint x="279.49999999999994" y="521" as="targetPoint"/>
                    </mxGeometry>
                </mxCell>
                <mxCell id="121" value="PolicyReports" style="shape=note;whiteSpace=wrap;html=1;backgroundOutline=1;darkOpacity=0.05;size=12;" vertex="1" parent="1">
                    <mxGeometry x="239.31" y="474" width="80" height="30" as="geometry"/>
                </mxCell>
                <mxCell id="122" value="Policy statuses" style="shape=note;whiteSpace=wrap;html=1;backgroundOutline=1;darkOpacity=0.05;size=12;" vertex="1" parent="1">
                    <mxGeometry x="262" y="496" width="80" height="30" as="geometry"/>
                </mxCell>
                <mxCell id="124" style="edgeStyle=none;html=1;exitX=0.5;exitY=1;exitDx=0;exitDy=0;exitPerimeter=0;entryX=0.835;entryY=0.035;entryDx=0;entryDy=0;entryPerimeter=0;" edge="1" parent="1" target="163">
                    <mxGeometry relative="1" as="geometry">
                        <mxPoint x="803" y="150" as="sourcePoint"/>
                        <mxPoint x="803" y="210" as="targetPoint"/>
                        <Array as="points">
                            <mxPoint x="803" y="190"/>
                            <mxPoint x="757" y="190"/>
                        </Array>
                    </mxGeometry>
                </mxCell>
                <mxCell id="133" style="edgeStyle=none;html=1;entryX=0.5;entryY=0;entryDx=0;entryDy=0;entryPerimeter=0;" edge="1" parent="1" target="132">
                    <mxGeometry relative="1" as="geometry">
                        <mxPoint x="709.6425925925926" y="394.9999999999999" as="sourcePoint"/>
                    </mxGeometry>
                </mxCell>
                <mxCell id="164" style="edgeStyle=none;html=1;exitX=0.5;exitY=1;exitDx=0;exitDy=0;entryX=0.197;entryY=0.007;entryDx=0;entryDy=0;entryPerimeter=0;" edge="1" parent="1" source="125" target="163">
                    <mxGeometry relative="1" as="geometry">
                        <Array as="points">
                            <mxPoint x="601" y="220"/>
                            <mxPoint x="630" y="220"/>
                        </Array>
                    </mxGeometry>
                </mxCell>
                <mxCell id="125" value="fetch policies" style="rounded=0;whiteSpace=wrap;html=1;fillColor=#ffe6cc;strokeColor=#d79b00;" vertex="1" parent="1">
                    <mxGeometry x="560.83" y="170" width="81" height="34" as="geometry"/>
                </mxCell>
                <mxCell id="126" value="OSCAL CDef" style="shape=note;whiteSpace=wrap;html=1;backgroundOutline=1;darkOpacity=0.05;size=12;" vertex="1" parent="1">
                    <mxGeometry x="760" y="120" width="80" height="30" as="geometry"/>
                </mxCell>
                <mxCell id="127" value="c2p-config.yaml" style="shape=note;whiteSpace=wrap;html=1;backgroundOutline=1;darkOpacity=0.05;size=8;" vertex="1" parent="1">
                    <mxGeometry x="567.83" y="120" width="80" height="30" as="geometry"/>
                </mxCell>
                <mxCell id="128" style="edgeStyle=none;html=1;exitX=0.5;exitY=1;exitDx=0;exitDy=0;exitPerimeter=0;" edge="1" parent="1" source="127">
                    <mxGeometry relative="1" as="geometry">
                        <mxPoint x="615.83" y="214" as="sourcePoint"/>
                        <mxPoint x="607.8299999999999" y="170" as="targetPoint"/>
                    </mxGeometry>
                </mxCell>
                <mxCell id="129" value="PolicyReports" style="shape=note;whiteSpace=wrap;html=1;backgroundOutline=1;darkOpacity=0.05;size=12;" vertex="1" parent="1">
                    <mxGeometry x="410" y="330" width="80" height="30" as="geometry"/>
                </mxCell>
                <mxCell id="130" value="Policy statuses" style="shape=note;whiteSpace=wrap;html=1;backgroundOutline=1;darkOpacity=0.05;size=12;" vertex="1" parent="1">
                    <mxGeometry x="432.69" y="352" width="80" height="30" as="geometry"/>
                </mxCell>
                <mxCell id="132" value="GitRepo" style="shape=cylinder3;whiteSpace=wrap;html=1;boundedLbl=1;backgroundOutline=1;size=8.846153846153868;fillColor=#0050ef;fontColor=#ffffff;strokeColor=#001DBC;" vertex="1" parent="1">
                    <mxGeometry x="673.7500000000001" y="459" width="71.88" height="42" as="geometry"/>
                </mxCell>
                <mxCell id="94" value="OSCAL Assess. Res." style="shape=note;whiteSpace=wrap;html=1;backgroundOutline=1;darkOpacity=0.05;size=12;" vertex="1" parent="1">
                    <mxGeometry x="669.6300000000001" y="408" width="80" height="30" as="geometry"/>
                </mxCell>
                <mxCell id="137" style="edgeStyle=none;html=1;exitX=0.25;exitY=1;exitDx=0;exitDy=0;" edge="1" parent="1" source="134">
                    <mxGeometry relative="1" as="geometry">
                        <mxPoint x="663.94" y="631" as="targetPoint"/>
                    </mxGeometry>
                </mxCell>
                <mxCell id="134" value="OSCAL consumer" style="rounded=0;whiteSpace=wrap;html=1;fillColor=#0050ef;fontColor=#ffffff;strokeColor=#001DBC;" vertex="1" parent="1">
                    <mxGeometry x="619" y="551" width="181.38" height="34" as="geometry"/>
                </mxCell>
                <mxCell id="136" style="edgeStyle=none;html=1;entryX=0.5;entryY=0;entryDx=0;entryDy=0;exitX=0.5;exitY=1;exitDx=0;exitDy=0;exitPerimeter=0;" edge="1" parent="1" source="132" target="134">
                    <mxGeometry relative="1" as="geometry">
                        <mxPoint x="719.6425925925926" y="405" as="sourcePoint"/>
                        <mxPoint x="719.69" y="469" as="targetPoint"/>
                    </mxGeometry>
                </mxCell>
                <mxCell id="135" value="OSCAL Assess. Res." style="shape=note;whiteSpace=wrap;html=1;backgroundOutline=1;darkOpacity=0.05;size=12;" vertex="1" parent="1">
                    <mxGeometry x="669.69" y="508" width="80" height="30" as="geometry"/>
                </mxCell>
                <mxCell id="138" value="PDF" style="shape=note;whiteSpace=wrap;html=1;backgroundOutline=1;darkOpacity=0.05;size=12;" vertex="1" parent="1">
                    <mxGeometry x="625.94" y="633" width="80" height="30" as="geometry"/>
                </mxCell>
                <mxCell id="139" style="edgeStyle=none;html=1;exitX=0.25;exitY=1;exitDx=0;exitDy=0;" edge="1" parent="1">
                    <mxGeometry relative="1" as="geometry">
                        <mxPoint x="747.94" y="631" as="targetPoint"/>
                        <mxPoint x="748.345" y="585" as="sourcePoint"/>
                    </mxGeometry>
                </mxCell>
                <mxCell id="140" value="Markdown" style="shape=note;whiteSpace=wrap;html=1;backgroundOutline=1;darkOpacity=0.05;size=12;" vertex="1" parent="1">
                    <mxGeometry x="709.94" y="633" width="80" height="30" as="geometry"/>
                </mxCell>
                <mxCell id="142" value="" style="shape=actor;whiteSpace=wrap;html=1;" vertex="1" parent="1">
                    <mxGeometry x="689.6300000000001" y="681" width="40" height="60" as="geometry"/>
                </mxCell>
                <mxCell id="165" style="edgeStyle=none;html=1;exitX=0.5;exitY=1;exitDx=0;exitDy=0;entryX=0.559;entryY=0.035;entryDx=0;entryDy=0;entryPerimeter=0;" edge="1" parent="1" source="157" target="163">
                    <mxGeometry relative="1" as="geometry"/>
                </mxCell>
                <mxCell id="157" value="fetch results" style="rounded=0;whiteSpace=wrap;html=1;fillColor=#ffe6cc;strokeColor=#d79b00;" vertex="1" parent="1">
                    <mxGeometry x="660" y="200" width="81" height="34" as="geometry"/>
                </mxCell>
                <mxCell id="158" value="Policies" style="shape=note;whiteSpace=wrap;html=1;backgroundOutline=1;darkOpacity=0.05;size=12;" vertex="1" parent="1">
                    <mxGeometry x="432.69" y="204" width="80" height="30" as="geometry"/>
                </mxCell>
                <mxCell id="161" value="c2p-config.yaml" style="shape=note;whiteSpace=wrap;html=1;backgroundOutline=1;darkOpacity=0.05;size=8;" vertex="1" parent="1">
                    <mxGeometry x="660" y="120" width="80" height="30" as="geometry"/>
                </mxCell>
                <mxCell id="162" style="edgeStyle=none;html=1;exitX=0.5;exitY=1;exitDx=0;exitDy=0;exitPerimeter=0;entryX=0.5;entryY=0;entryDx=0;entryDy=0;" edge="1" parent="1" source="161" target="157">
                    <mxGeometry relative="1" as="geometry">
                        <mxPoint x="708" y="214" as="sourcePoint"/>
                        <mxPoint x="699.9999999999999" y="170" as="targetPoint"/>
                    </mxGeometry>
                </mxCell>
                <mxCell id="163" value="results2oscal" style="rounded=0;whiteSpace=wrap;html=1;fillColor=#ffe6cc;strokeColor=#d79b00;" vertex="1" parent="1">
                    <mxGeometry x="590" y="313" width="200" height="34" as="geometry"/>
                </mxCell>
            </root>
        </mxGraphModel>
    </diagram>
</mxfile>